G75*
G70*
%OFA0B0*%
%FSLAX24Y24*%
%IPPOS*%
%LPD*%
%AMOC8*
5,1,8,0,0,1.08239X$1,22.5*
%
%ADD10R,0.1063X0.2953*%
%ADD11C,0.0600*%
%ADD12OC8,0.0520*%
%ADD13OC8,0.0630*%
%ADD14C,0.0630*%
%ADD15C,0.0520*%
%ADD16OC8,0.0600*%
%ADD17C,0.0740*%
%ADD18C,0.0240*%
%ADD19C,0.0100*%
D10*
X011790Y008124D03*
D11*
X011294Y010851D02*
X011294Y011451D01*
X012294Y011451D02*
X012294Y010851D01*
X011094Y014151D02*
X010494Y014151D01*
X010494Y015151D02*
X011094Y015151D01*
X011094Y016151D02*
X010494Y016151D01*
X009494Y016151D02*
X008894Y016151D01*
X008894Y015151D02*
X009494Y015151D01*
X009494Y014151D02*
X008894Y014151D01*
X005494Y014151D02*
X004894Y014151D01*
X004894Y015151D02*
X005494Y015151D01*
X005494Y016151D02*
X004894Y016151D01*
X003494Y016151D02*
X002894Y016151D01*
X002894Y015151D02*
X003494Y015151D01*
X003494Y014151D02*
X002894Y014151D01*
X003194Y019851D02*
X003194Y020451D01*
X004194Y020451D02*
X004194Y019851D01*
X005194Y019851D02*
X005194Y020451D01*
X006194Y020451D02*
X006194Y019851D01*
X007194Y019851D02*
X007194Y020451D01*
X008194Y020451D02*
X008194Y019851D01*
X009194Y019851D02*
X009194Y020451D01*
X010794Y020451D02*
X010794Y019851D01*
X011794Y019851D02*
X011794Y020451D01*
X012794Y020451D02*
X012794Y019851D01*
X013794Y019851D02*
X013794Y020451D01*
X014794Y020451D02*
X014794Y019851D01*
X015794Y019851D02*
X015794Y020451D01*
X016794Y020451D02*
X016794Y019851D01*
X017794Y019851D02*
X017794Y020451D01*
X012294Y005451D02*
X012294Y004851D01*
X011294Y004851D02*
X011294Y005451D01*
X010794Y001451D02*
X010794Y000851D01*
X009794Y000851D02*
X009794Y001451D01*
X008794Y001451D02*
X008794Y000851D01*
X007794Y000851D02*
X007794Y001451D01*
X006794Y001451D02*
X006794Y000851D01*
X005794Y000851D02*
X005794Y001451D01*
X012794Y001451D02*
X012794Y000851D01*
X013794Y000851D02*
X013794Y001451D01*
X014794Y001451D02*
X014794Y000851D01*
X015794Y000851D02*
X015794Y001451D01*
X016794Y001451D02*
X016794Y000851D01*
X017794Y000851D02*
X017794Y001451D01*
X002194Y019851D02*
X002194Y020451D01*
D12*
X009794Y012651D03*
X009794Y011651D03*
X013794Y011651D03*
X013794Y012651D03*
X013723Y004722D03*
X013723Y003722D03*
X009849Y003722D03*
X009849Y004722D03*
X005794Y007651D03*
X005794Y008651D03*
X002388Y004616D03*
X001388Y004616D03*
D13*
X002794Y007451D03*
X016794Y012851D03*
D14*
X016794Y011451D03*
X002794Y008851D03*
D15*
X008294Y009391D02*
X008294Y009911D01*
X009294Y009911D02*
X009294Y009391D01*
X010294Y009391D02*
X010294Y009911D01*
X011294Y009911D02*
X011294Y009391D01*
X012294Y009391D02*
X012294Y009911D01*
X013294Y009911D02*
X013294Y009391D01*
X014294Y009391D02*
X014294Y009911D01*
X015294Y009911D02*
X015294Y009391D01*
X015294Y006911D02*
X015294Y006391D01*
X014294Y006391D02*
X014294Y006911D01*
X013294Y006911D02*
X013294Y006391D01*
X012294Y006391D02*
X012294Y006911D01*
X011294Y006911D02*
X011294Y006391D01*
X010294Y006391D02*
X010294Y006911D01*
X009294Y006911D02*
X009294Y006391D01*
X008294Y006391D02*
X008294Y006911D01*
D16*
X017794Y007151D03*
X017794Y009151D03*
D17*
X001514Y001261D03*
X001514Y003041D03*
X004074Y003041D03*
X004074Y001261D03*
D18*
X002872Y001261D01*
X002833Y001301D01*
X002833Y003025D01*
X001388Y004470D01*
X001388Y004616D01*
X002046Y004958D02*
X002046Y006254D01*
X001258Y007041D01*
X001258Y013340D01*
X003069Y015151D01*
X003194Y015151D01*
X003194Y014151D02*
X003194Y014094D01*
X001849Y012750D01*
X001849Y007238D01*
X002243Y006844D01*
X004211Y006844D01*
X008739Y002317D01*
X008739Y001151D01*
X008794Y001151D01*
X007794Y001151D02*
X007754Y001191D01*
X007754Y002317D01*
X003817Y006254D01*
X002046Y006254D01*
X002794Y007451D02*
X002994Y007651D01*
X005794Y007651D01*
X006002Y007651D01*
X006180Y007828D01*
X009794Y007828D01*
X011298Y007828D01*
X011294Y009651D01*
X012294Y009651D01*
X012282Y009797D02*
X012282Y009011D01*
X012282Y007828D01*
X012282Y006663D01*
X012294Y006651D01*
X012294Y007828D01*
X017203Y007828D01*
X011298Y007828D01*
X011298Y006651D01*
X012294Y006651D01*
X013294Y006651D02*
X013294Y005151D01*
X012294Y005151D01*
X013294Y005151D02*
X013723Y004722D01*
X013723Y003722D02*
X016640Y003722D01*
X017794Y004876D01*
X017794Y007139D01*
X018876Y008222D01*
X018876Y010781D01*
X016809Y012848D01*
X013294Y010151D02*
X013294Y009651D01*
X013294Y010151D02*
X012294Y011151D01*
X011294Y011151D02*
X010294Y010151D01*
X010294Y009651D01*
X011298Y007828D02*
X011294Y006651D01*
X010294Y006651D02*
X010294Y005167D01*
X010309Y005151D01*
X011294Y005151D01*
X010294Y005167D02*
X009849Y004722D01*
X009849Y003722D02*
X013723Y003722D01*
X012294Y007828D02*
X012282Y007828D01*
X017203Y007828D02*
X017794Y007238D01*
X017794Y007151D01*
X017794Y007139D02*
X017794Y007238D01*
X017203Y007828D01*
X005794Y001151D02*
X004184Y001151D01*
X002872Y001261D02*
X001514Y001261D01*
X002388Y004616D02*
X002046Y004958D01*
D19*
X007194Y011751D02*
X007194Y020151D01*
X008194Y020151D02*
X008233Y015652D01*
X011490Y015652D01*
X014371Y012969D01*
X014371Y009811D01*
X014294Y009651D01*
X013794Y009011D02*
X012282Y009011D01*
X013794Y009011D02*
X013794Y011651D01*
X013794Y012651D02*
X012294Y011151D01*
X011294Y011151D02*
X009794Y012651D01*
X009794Y011651D02*
X009794Y007828D01*
X009294Y009651D02*
X007194Y011751D01*
X003194Y014151D02*
X002354Y013311D01*
X003194Y016151D02*
X004194Y017151D01*
X004194Y020151D01*
X009194Y020151D02*
X009194Y016151D01*
X010794Y016151D02*
X010794Y020151D01*
X016794Y011451D02*
X015294Y009951D01*
X015294Y009651D01*
M02*
