%
M48
M72
T01C0.0320
T02C0.0400
T03C0.1260
%
T01
X1388Y4616
X2388Y4616
X2794Y7451
X2794Y8851
X5794Y8651
X5794Y7651
X8294Y6651
X9294Y6651
X10294Y6651
X11294Y6651
X12294Y6651
X13294Y6651
X14294Y6651
X15294Y6651
X13723Y4722
X13723Y3722
X9849Y3722
X9849Y4722
X10294Y9651
X11294Y9651
X12294Y9651
X13294Y9651
X14294Y9651
X15294Y9651
X16794Y11451
X16794Y12851
X13794Y12651
X13794Y11651
X9794Y11651
X9794Y12651
X9294Y9651
X8294Y9651
T02
X1514Y1261
X1514Y3041
X4074Y3041
X4074Y1261
X5794Y1151
X6794Y1151
X7794Y1151
X8794Y1151
X9794Y1151
X10794Y1151
X12794Y1151
X13794Y1151
X14794Y1151
X15794Y1151
X16794Y1151
X17794Y1151
X17794Y7151
X17794Y9151
X12294Y11151
X11294Y11151
X10794Y14151
X10794Y15151
X10794Y16151
X9194Y16151
X9194Y15151
X9194Y14151
X5194Y14151
X5194Y15151
X5194Y16151
X3194Y16151
X3194Y15151
X3194Y14151
X3194Y20151
X4194Y20151
X5194Y20151
X6194Y20151
X7194Y20151
X8194Y20151
X9194Y20151
X10794Y20151
X11794Y20151
X12794Y20151
X13794Y20151
X14794Y20151
X15794Y20151
X16794Y20151
X17794Y20151
X12294Y5151
X11294Y5151
X2194Y20151
T03
X18794Y14151
X18794Y3151
M30
