G75*
G70*
%OFA0B0*%
%FSLAX24Y24*%
%IPPOS*%
%LPD*%
%AMOC8*
5,1,8,0,0,1.08239X$1,22.5*
%
%ADD10C,0.0000*%
%ADD11C,0.0100*%
%ADD12C,0.0600*%
%ADD13OC8,0.0520*%
%ADD14OC8,0.0630*%
%ADD15C,0.0630*%
%ADD16C,0.0520*%
%ADD17OC8,0.0600*%
%ADD18C,0.0740*%
%ADD19C,0.0240*%
%ADD20C,0.0120*%
D10*
X018164Y003151D02*
X018166Y003201D01*
X018172Y003251D01*
X018182Y003300D01*
X018196Y003348D01*
X018213Y003395D01*
X018234Y003440D01*
X018259Y003484D01*
X018287Y003525D01*
X018319Y003564D01*
X018353Y003601D01*
X018390Y003635D01*
X018430Y003665D01*
X018472Y003692D01*
X018516Y003716D01*
X018562Y003737D01*
X018609Y003753D01*
X018657Y003766D01*
X018707Y003775D01*
X018756Y003780D01*
X018807Y003781D01*
X018857Y003778D01*
X018906Y003771D01*
X018955Y003760D01*
X019003Y003745D01*
X019049Y003727D01*
X019094Y003705D01*
X019137Y003679D01*
X019178Y003650D01*
X019217Y003618D01*
X019253Y003583D01*
X019285Y003545D01*
X019315Y003505D01*
X019342Y003462D01*
X019365Y003418D01*
X019384Y003372D01*
X019400Y003324D01*
X019412Y003275D01*
X019420Y003226D01*
X019424Y003176D01*
X019424Y003126D01*
X019420Y003076D01*
X019412Y003027D01*
X019400Y002978D01*
X019384Y002930D01*
X019365Y002884D01*
X019342Y002840D01*
X019315Y002797D01*
X019285Y002757D01*
X019253Y002719D01*
X019217Y002684D01*
X019178Y002652D01*
X019137Y002623D01*
X019094Y002597D01*
X019049Y002575D01*
X019003Y002557D01*
X018955Y002542D01*
X018906Y002531D01*
X018857Y002524D01*
X018807Y002521D01*
X018756Y002522D01*
X018707Y002527D01*
X018657Y002536D01*
X018609Y002549D01*
X018562Y002565D01*
X018516Y002586D01*
X018472Y002610D01*
X018430Y002637D01*
X018390Y002667D01*
X018353Y002701D01*
X018319Y002738D01*
X018287Y002777D01*
X018259Y002818D01*
X018234Y002862D01*
X018213Y002907D01*
X018196Y002954D01*
X018182Y003002D01*
X018172Y003051D01*
X018166Y003101D01*
X018164Y003151D01*
X018164Y014151D02*
X018166Y014201D01*
X018172Y014251D01*
X018182Y014300D01*
X018196Y014348D01*
X018213Y014395D01*
X018234Y014440D01*
X018259Y014484D01*
X018287Y014525D01*
X018319Y014564D01*
X018353Y014601D01*
X018390Y014635D01*
X018430Y014665D01*
X018472Y014692D01*
X018516Y014716D01*
X018562Y014737D01*
X018609Y014753D01*
X018657Y014766D01*
X018707Y014775D01*
X018756Y014780D01*
X018807Y014781D01*
X018857Y014778D01*
X018906Y014771D01*
X018955Y014760D01*
X019003Y014745D01*
X019049Y014727D01*
X019094Y014705D01*
X019137Y014679D01*
X019178Y014650D01*
X019217Y014618D01*
X019253Y014583D01*
X019285Y014545D01*
X019315Y014505D01*
X019342Y014462D01*
X019365Y014418D01*
X019384Y014372D01*
X019400Y014324D01*
X019412Y014275D01*
X019420Y014226D01*
X019424Y014176D01*
X019424Y014126D01*
X019420Y014076D01*
X019412Y014027D01*
X019400Y013978D01*
X019384Y013930D01*
X019365Y013884D01*
X019342Y013840D01*
X019315Y013797D01*
X019285Y013757D01*
X019253Y013719D01*
X019217Y013684D01*
X019178Y013652D01*
X019137Y013623D01*
X019094Y013597D01*
X019049Y013575D01*
X019003Y013557D01*
X018955Y013542D01*
X018906Y013531D01*
X018857Y013524D01*
X018807Y013521D01*
X018756Y013522D01*
X018707Y013527D01*
X018657Y013536D01*
X018609Y013549D01*
X018562Y013565D01*
X018516Y013586D01*
X018472Y013610D01*
X018430Y013637D01*
X018390Y013667D01*
X018353Y013701D01*
X018319Y013738D01*
X018287Y013777D01*
X018259Y013818D01*
X018234Y013862D01*
X018213Y013907D01*
X018196Y013954D01*
X018182Y014002D01*
X018172Y014051D01*
X018166Y014101D01*
X018164Y014151D01*
D11*
X000154Y021151D02*
X000154Y000151D01*
X018794Y000151D01*
X018794Y001151D01*
X019794Y002151D01*
X019794Y015051D01*
X018794Y016051D01*
X018794Y020551D01*
X018194Y021151D01*
X000154Y021151D01*
X005194Y020151D02*
X005194Y016151D01*
X005194Y015151D02*
X009194Y015151D01*
X010794Y015151D01*
X010794Y014151D02*
X009194Y014151D01*
X005194Y014151D01*
X003194Y014151D01*
X003194Y015151D02*
X005194Y015151D01*
X007193Y015652D02*
X001251Y015652D01*
X001251Y007018D01*
X002651Y005617D01*
X008260Y005617D01*
X009294Y006651D01*
X013794Y011651D02*
X014994Y012851D01*
X016794Y012851D01*
X018411Y013174D02*
X012794Y018751D01*
X012794Y020151D01*
X011809Y019757D02*
X007193Y015652D01*
X014294Y006651D02*
X015052Y005736D01*
X015493Y005736D01*
X018411Y008732D01*
X018411Y013174D01*
D12*
X012294Y011451D02*
X012294Y010851D01*
X011294Y010851D02*
X011294Y011451D01*
X011094Y014151D02*
X010494Y014151D01*
X010494Y015151D02*
X011094Y015151D01*
X011094Y016151D02*
X010494Y016151D01*
X009494Y016151D02*
X008894Y016151D01*
X008894Y015151D02*
X009494Y015151D01*
X009494Y014151D02*
X008894Y014151D01*
X005494Y014151D02*
X004894Y014151D01*
X004894Y015151D02*
X005494Y015151D01*
X005494Y016151D02*
X004894Y016151D01*
X003494Y016151D02*
X002894Y016151D01*
X002894Y015151D02*
X003494Y015151D01*
X003494Y014151D02*
X002894Y014151D01*
X003194Y019851D02*
X003194Y020451D01*
X004194Y020451D02*
X004194Y019851D01*
X005194Y019851D02*
X005194Y020451D01*
X006194Y020451D02*
X006194Y019851D01*
X007194Y019851D02*
X007194Y020451D01*
X008194Y020451D02*
X008194Y019851D01*
X009194Y019851D02*
X009194Y020451D01*
X010794Y020451D02*
X010794Y019851D01*
X011794Y019851D02*
X011794Y020451D01*
X012794Y020451D02*
X012794Y019851D01*
X013794Y019851D02*
X013794Y020451D01*
X014794Y020451D02*
X014794Y019851D01*
X015794Y019851D02*
X015794Y020451D01*
X016794Y020451D02*
X016794Y019851D01*
X017794Y019851D02*
X017794Y020451D01*
X012294Y005451D02*
X012294Y004851D01*
X011294Y004851D02*
X011294Y005451D01*
X010794Y001451D02*
X010794Y000851D01*
X009794Y000851D02*
X009794Y001451D01*
X008794Y001451D02*
X008794Y000851D01*
X007794Y000851D02*
X007794Y001451D01*
X006794Y001451D02*
X006794Y000851D01*
X005794Y000851D02*
X005794Y001451D01*
X012794Y001451D02*
X012794Y000851D01*
X013794Y000851D02*
X013794Y001451D01*
X014794Y001451D02*
X014794Y000851D01*
X015794Y000851D02*
X015794Y001451D01*
X016794Y001451D02*
X016794Y000851D01*
X017794Y000851D02*
X017794Y001451D01*
X002194Y019851D02*
X002194Y020451D01*
D13*
X009794Y012651D03*
X009794Y011651D03*
X013794Y011651D03*
X013794Y012651D03*
X013723Y004722D03*
X013723Y003722D03*
X009849Y003722D03*
X009849Y004722D03*
X005794Y007651D03*
X005794Y008651D03*
X002388Y004616D03*
X001388Y004616D03*
D14*
X002794Y007451D03*
X016794Y012851D03*
D15*
X016794Y011451D03*
X002794Y008851D03*
D16*
X008294Y009391D02*
X008294Y009911D01*
X009294Y009911D02*
X009294Y009391D01*
X010294Y009391D02*
X010294Y009911D01*
X011294Y009911D02*
X011294Y009391D01*
X012294Y009391D02*
X012294Y009911D01*
X013294Y009911D02*
X013294Y009391D01*
X014294Y009391D02*
X014294Y009911D01*
X015294Y009911D02*
X015294Y009391D01*
X015294Y006911D02*
X015294Y006391D01*
X014294Y006391D02*
X014294Y006911D01*
X013294Y006911D02*
X013294Y006391D01*
X012294Y006391D02*
X012294Y006911D01*
X011294Y006911D02*
X011294Y006391D01*
X010294Y006391D02*
X010294Y006911D01*
X009294Y006911D02*
X009294Y006391D01*
X008294Y006391D02*
X008294Y006911D01*
D17*
X017794Y007151D03*
X017794Y009151D03*
D18*
X004074Y003041D03*
X004074Y001261D03*
X001514Y001261D03*
X001514Y003041D03*
D19*
X004074Y003041D01*
X007069Y003041D01*
X008739Y001372D01*
X008739Y001206D01*
X008794Y001151D01*
X008294Y006651D02*
X008294Y008419D01*
X006223Y008419D01*
X005991Y008651D01*
X005794Y008651D01*
X002994Y008651D01*
X002794Y008851D01*
X008294Y008419D02*
X008294Y009651D01*
X008294Y008419D02*
X015294Y008419D01*
X015294Y006651D01*
X015294Y008419D02*
X015294Y009651D01*
X015294Y008419D02*
X017203Y008419D01*
X017794Y009009D01*
X017794Y009151D01*
D20*
X011809Y019757D02*
X011809Y020135D01*
X011794Y020151D01*
M02*
